<svg width="30" height="34" viewBox="0 0 30 34" fill="none" xmlns="http://www.w3.org/2000/svg">
<path d="M24.2816 14.1275C24.0474 14.1275 23.8171 14.1454 23.5902 14.1766L22.1647 8.64613C22.304 8.46223 22.3886 8.22365 22.3886 7.96237C22.3886 7.38175 21.9732 6.91091 21.4608 6.91091H17.6339C17.1216 6.91091 16.7062 7.38175 16.7062 7.96237C16.7062 8.54298 17.1216 9.01382 17.6339 9.01382H20.0577L19.0722 10.7915C19.0287 10.7852 18.9841 10.7816 18.9394 10.783L10.6543 10.9192C10.8597 10.7263 10.9905 10.4351 10.9905 10.1093C10.9905 9.52872 10.5751 9.05788 10.0627 9.05788H7.82775C7.31535 9.05788 6.9 9.52872 6.9 10.1093C6.9 10.69 7.31535 11.1608 7.82775 11.1608H7.99466C8.01692 11.2549 8.0506 11.3471 8.09754 11.4346L8.47013 12.1295L7.44181 14.4288C6.89768 14.2335 6.31876 14.1274 5.71832 14.1274C2.56524 14.1275 0 17.0346 0 20.6082C0 24.1818 2.56524 27.0891 5.71832 27.0891C8.44128 27.0891 10.7242 24.9203 11.2969 22.0273L14.3565 22.2279C14.3745 22.2291 14.3924 22.2297 14.4102 22.2297C14.7279 22.2297 15.0253 22.0448 15.1956 21.7375L20.9366 11.3812L21.8089 14.7654C19.8904 15.8124 18.5632 18.0379 18.5632 20.6082C18.5632 24.1817 21.1284 27.0891 24.2816 27.0891C27.4348 27.0891 30 24.1818 30 20.6082C30 17.0346 27.4347 14.1275 24.2816 14.1275ZM9.60422 14.245L12.6963 20.0126L11.4049 19.9279C11.2327 18.0658 10.3615 16.4367 9.09535 15.3827L9.60422 14.245ZM1.85551 20.6082C1.85551 18.1943 3.58837 16.2304 5.71832 16.2304C6.01659 16.2304 6.3067 16.2701 6.58567 16.3431L4.89076 20.133C4.74927 20.4493 4.75799 20.825 4.91404 21.1325C5.07009 21.4399 5.35232 21.6375 5.66469 21.658L9.40846 21.9035C8.92009 23.6872 7.45053 24.9862 5.71832 24.9862C3.58837 24.9862 1.85551 23.0223 1.85551 20.6082ZM7.1864 19.6512L8.23977 17.2958C8.88976 17.9323 9.35094 18.8092 9.51469 19.8039L7.1864 19.6512ZM14.4216 19.1809L11.1157 13.0147L17.9015 12.9032L14.4216 19.1809ZM24.2816 24.9862C22.1516 24.9862 20.4187 23.0223 20.4187 20.6082C20.4187 18.996 21.1922 17.5856 22.3401 16.8259L23.391 20.9031C23.5348 21.4605 24.0503 21.7805 24.5416 21.6175C25.0335 21.4547 25.3158 20.8708 25.1721 20.3135L24.1208 16.2351C24.1742 16.2326 24.2277 16.2305 24.2816 16.2305C26.4116 16.2305 28.1445 18.1944 28.1445 20.6083C28.1445 23.0223 26.4116 24.9862 24.2816 24.9862Z" fill="white"/>
</svg>
