<svg width="20" height="23" viewBox="0 0 20 23" fill="none" xmlns="http://www.w3.org/2000/svg">
<path d="M1.57898 16.9474C1.57898 18.0368 2.00003 19.0053 2.63161 19.6105V21.7895C2.63161 22.5158 3.05266 23 3.68424 23H4.73687C5.36845 23 5.78951 22.5158 5.78951 21.7895V20.5789H14.2106V21.7895C14.2106 22.5158 14.6316 23 15.2632 23H16.3158C16.9474 23 17.3685 22.5158 17.3685 21.7895V19.6105C18 19.0053 18.4211 18.0369 18.4211 16.9474V4.84211C18.4211 0.605263 14.6316 0 10 0C5.36845 0 1.57898 0.605263 1.57898 4.84211V16.9474ZM5.26319 18.1579C4.42108 18.1579 3.68424 17.3105 3.68424 16.3421C3.68424 15.3737 4.42108 14.5263 5.26319 14.5263C6.1053 14.5263 6.84214 15.3737 6.84214 16.3421C6.84214 17.3105 6.1053 18.1579 5.26319 18.1579ZM14.7369 18.1579C13.8948 18.1579 13.1579 17.3105 13.1579 16.3421C13.1579 15.3737 13.8948 14.5263 14.7369 14.5263C15.579 14.5263 16.3158 15.3737 16.3158 16.3421C16.3158 17.3105 15.579 18.1579 14.7369 18.1579ZM16.3158 10.8947H3.68424V4.84211H16.3158V10.8947Z" fill="white"/>
</svg>
