<svg width="24" height="22" viewBox="0 0 24 22" fill="none" xmlns="http://www.w3.org/2000/svg">
<path d="M12 8.80001C10.0116 8.80001 8.4 10.278 8.4 12.1C8.4 13.9227 10.0116 15.4 12 15.4C13.9879 15.4 15.6 13.9227 15.6 12.1C15.6 10.278 13.9879 8.80001 12 8.80001ZM21.6 5.50001H18.72C18.324 5.50001 17.8973 5.21841 17.7722 4.87389L17.0278 2.82591C16.9022 2.48161 16.476 2.20001 16.08 2.20001H7.92C7.524 2.20001 7.09728 2.48161 6.97224 2.82613L6.22776 4.87411C6.10224 5.21841 5.676 5.50001 5.28 5.50001H2.4C1.08 5.50001 0 6.49001 0 7.70001V17.6C0 18.81 1.08 19.8 2.4 19.8H21.6C22.92 19.8 24 18.81 24 17.6V7.70001C24 6.49001 22.92 5.50001 21.6 5.50001ZM12 17.6C8.68632 17.6 6 15.1376 6 12.1C6 9.06269 8.68632 6.60001 12 6.60001C15.3132 6.60001 18 9.06269 18 12.1C18 15.1376 15.3132 17.6 12 17.6ZM20.76 9.23847C20.2963 9.23847 19.92 8.89395 19.92 8.46847C19.92 8.04343 20.2963 7.69847 20.76 7.69847C21.2242 7.69847 21.6 8.04343 21.6 8.46847C21.6 8.89395 21.2239 9.23847 20.76 9.23847Z" fill="#8E8E93"/>
</svg>
