<svg width="34" height="28" viewBox="0 0 34 28" fill="none" xmlns="http://www.w3.org/2000/svg">
<path d="M33.6568 13.5949L1.02493 0.986513L5.48108 13.6933L1.09968 26.4175L33.6568 13.5949Z" fill="url(#paint0_linear)" fill-opacity="0.45"/>
<path d="M33.9527 13.4935C33.9525 13.4149 33.9386 13.3495 33.9248 13.284C33.9247 13.2578 33.9111 13.2448 33.911 13.2186C33.8972 13.1663 33.8835 13.127 33.8697 13.0747C33.856 13.0486 33.856 13.0355 33.8423 13.0093C33.8149 12.9439 33.7875 12.8917 33.7465 12.8263C33.7465 12.8263 33.7465 12.8263 33.7328 12.8133C33.6918 12.761 33.6509 12.7088 33.6099 12.6697C33.5963 12.6566 33.5827 12.6436 33.569 12.6305C33.5281 12.5914 33.4872 12.5653 33.4463 12.5393C33.4327 12.5262 33.4054 12.5132 33.3918 12.5002C33.3509 12.4741 33.2964 12.4481 33.2419 12.4221C33.2283 12.4091 33.2147 12.4091 33.2011 12.3961L1.72171 0.196844C1.27241 0.0281792 0.76964 0.1216 0.417215 0.43711C0.0647896 0.75262 -0.0558923 1.23755 0.0952306 1.68225L4.25686 13.6103L0.151484 25.5672C0.00347219 26.013 0.127537 26.497 0.482158 26.8101C0.71404 27.0188 1.01359 27.1356 1.32632 27.1345C1.47589 27.134 1.63896 27.1072 1.7883 27.0412L33.2088 14.6222C33.2088 14.6222 33.2088 14.6222 33.2224 14.6222C33.236 14.6221 33.2496 14.609 33.2631 14.5958C33.3174 14.5695 33.3717 14.5431 33.4124 14.5167C33.426 14.5036 33.4531 14.4904 33.4667 14.4773C33.5074 14.4509 33.548 14.4115 33.5887 14.3852C33.6023 14.372 33.6158 14.3589 33.6294 14.3458C33.6836 14.2932 33.7242 14.2407 33.7648 14.1881C33.8054 14.1356 33.8324 14.07 33.8593 14.0045C33.8729 13.9782 33.8728 13.9651 33.8863 13.9389C33.8997 13.8865 33.9132 13.8472 33.9266 13.7947C33.9265 13.7685 33.9401 13.7554 33.94 13.7292C33.9396 13.6375 33.953 13.5589 33.9527 13.4935ZM3.2556 3.34736L26.4158 12.3281L6.41458 12.398L3.2556 3.34736ZM6.42286 14.7682L26.4105 14.6983L3.3136 23.8407L6.42286 14.7682Z" fill="url(#paint1_linear)" fill-opacity="0.45"/>
<defs>
<linearGradient id="paint0_linear" x1="17.3116" y1="0.929622" x2="17.4005" y2="26.3605" gradientUnits="userSpaceOnUse">
<stop stop-color="#E233BB"/>
<stop offset="1" stop-color="#3200F8" stop-opacity="0.71"/>
</linearGradient>
<linearGradient id="paint1_linear" x1="16.9528" y1="0.0592408" x2="17.0472" y2="27.0796" gradientUnits="userSpaceOnUse">
<stop stop-color="#E233BB"/>
<stop offset="1" stop-color="#3200F8" stop-opacity="0.71"/>
</linearGradient>
</defs>
</svg>
