<svg width="61" height="68" viewBox="0 0 61 68" fill="none" xmlns="http://www.w3.org/2000/svg">
<g filter="url(#filter0_d)">
<path d="M49.2383 6.14256C38.8902 -2.04752 22.1113 -2.04752 11.7617 6.14256C2.43701 13.5226 1.38733 27.4185 9.30077 35.769L30.5 60L51.6992 35.769C59.6127 27.4185 58.563 13.5226 49.2383 6.14256Z" fill="url(#paint0_linear)"/>
</g>
<path d="M31.0381 14.9543C31.0717 14.955 31.1052 14.9553 31.1388 14.9553C32.7505 14.9553 34.2742 14.1995 35.0936 12.9969C35.9243 11.7774 35.9336 10.2205 35.1173 8.9936C34.3133 7.7849 32.7995 7.01529 31.1894 7.00023C29.5764 6.98518 28.0422 7.7267 27.2079 8.92321C26.3627 10.1353 26.3348 11.692 27.1366 12.9261C27.9257 14.141 29.4293 14.9243 31.0381 14.9543Z" fill="white"/>
<path d="M43.0969 22.6017C42.3308 22.3307 41.5736 22.0459 40.8383 21.7161C40.0067 21.3429 39.1793 20.9283 38.485 20.3788C38.4418 20.3446 38.3984 20.3104 38.3554 20.2761C38.3491 20.2715 38.4002 20.3074 38.3773 20.2912C37.9554 19.9366 37.5446 19.5767 37.1653 19.187C36.7618 18.7724 36.4148 18.2962 36.1074 17.8211C35.2382 16.4782 34.2044 15.3912 32.5588 15.1374C31.662 14.999 30.7207 15.099 29.8891 15.4211C29.4637 15.5859 29.0684 15.8076 28.7202 16.0759C28.3952 16.3264 28.0947 16.6068 27.8028 16.8858C26.3348 18.2892 25.1095 19.9057 24.1975 21.6267C23.7222 22.5236 23.3194 23.4546 23.0324 24.4104C22.7463 25.3627 22.5563 26.3225 22.4566 27.3027C22.4174 27.6879 22.4001 28.0769 22.4022 28.4634C22.3978 28.5242 22.4013 28.6126 22.4108 28.7019C21.6284 29.0847 21.0987 29.8117 21.0987 30.6442V31.0066H20.0279C19.7404 31.0066 19.5074 31.2086 19.5074 31.4577L19.0596 38.7838C19.0596 39.0328 19.2926 39.2348 19.5802 39.2348H27.7614C28.0488 39.2348 28.2819 39.0328 28.2819 38.7838L27.8342 31.4577C27.8342 31.2085 27.6012 31.0066 27.3137 31.0066H26.2428V30.6442C26.2428 29.9196 25.8417 29.2749 25.2221 28.8675C25.2234 28.7735 25.2257 28.697 25.2295 28.6534C25.2293 28.6534 25.2293 28.6533 25.2291 28.6533C25.41 26.7181 26.1089 24.843 27.1915 23.1473C27.2862 22.9991 27.3833 22.852 27.4844 22.7071C27.584 24.1891 27.6603 25.6723 27.7235 27.1559C27.7439 27.6356 27.7629 28.1154 27.7806 28.5954C27.7988 29.0886 27.8228 29.5677 27.988 30.044C28.0505 30.224 28.0883 30.4142 28.1256 30.5993C28.1694 30.8167 28.2153 31.0337 28.2527 31.2519C28.3412 31.7097 28.4038 32.1716 28.4659 32.6325C28.5978 33.6106 28.6743 34.5926 28.7271 35.5759C28.7819 36.5952 28.8015 37.6215 28.7669 38.6416C28.7338 39.618 28.6959 40.5954 28.5996 41.5691C28.5533 42.0375 28.5217 42.509 28.4533 42.9754C28.3928 43.3881 28.3427 43.8022 28.2877 44.2155C28.2799 44.275 28.272 44.3344 28.2639 44.3936C28.1708 45.1151 28.7354 45.8025 29.5515 45.9642C30.3724 46.1272 31.2302 45.7163 31.5041 45.025C31.5262 44.9691 31.5444 44.9121 31.5585 44.8545C31.7374 44.1262 31.9232 43.3994 32.0764 42.6668C32.2787 41.6996 32.4739 40.7304 32.6144 39.7546C32.7579 38.7571 32.888 37.7592 32.9718 36.7562C33.0554 35.7589 33.1111 34.7607 33.1287 33.7608C33.1306 33.662 33.1302 33.563 33.1306 33.464C33.4468 35.4544 33.5748 37.4666 33.4807 39.4746C33.4387 40.3685 33.3457 41.2562 33.2266 42.1446C33.1423 42.7733 33.0134 43.3972 32.8863 44.0201C32.7428 44.7426 33.2707 45.4627 34.0851 45.6588C34.8965 45.8543 35.7751 45.4781 36.0854 44.7987C36.1105 44.7439 36.1318 44.6876 36.1489 44.6305C36.3622 43.924 36.5669 43.2171 36.7373 42.5015C36.9661 41.5417 37.141 40.575 37.2794 39.6024C37.561 37.6219 37.6318 35.6137 37.5324 33.6207C37.4831 32.6317 37.3926 31.6442 37.2544 30.6614C37.187 30.183 37.1103 29.7057 37.0212 29.2299C36.9995 29.1142 36.9771 28.9987 36.954 28.8831C36.9292 28.7581 36.9318 28.6308 36.9273 28.5039C36.9181 28.255 36.9089 28.0063 36.8993 27.7574C36.8371 26.1634 36.7612 24.5697 36.6622 22.977C37.5349 23.4422 38.4764 23.7993 39.4381 24.102C40.3234 24.3808 41.2281 24.6166 42.1433 24.8098C42.4608 24.8768 42.7635 24.8932 43.0748 24.7887C43.4207 24.6725 43.7018 24.4351 43.8422 24.1372C44.122 23.543 43.7828 22.8442 43.0969 22.6017ZM25.2019 31.0066H22.1394V30.6442C22.1394 30.3361 22.2623 30.0529 22.4663 29.8275C22.5636 30.333 23.0426 30.7464 23.6381 30.8118C24.244 30.8782 24.8305 30.5738 25.0636 30.0961C25.1516 30.2634 25.2019 30.4487 25.2019 30.6442V31.0066Z" fill="white"/>
<defs>
<filter id="filter0_d" x="0" y="0" width="61" height="68" filterUnits="userSpaceOnUse" color-interpolation-filters="sRGB">
<feFlood flood-opacity="0" result="BackgroundImageFix"/>
<feColorMatrix in="SourceAlpha" type="matrix" values="0 0 0 0 0 0 0 0 0 0 0 0 0 0 0 0 0 0 127 0"/>
<feOffset dy="4"/>
<feGaussianBlur stdDeviation="2"/>
<feColorMatrix type="matrix" values="0 0 0 0 0 0 0 0 0 0 0 0 0 0 0 0 0 0 0.4 0"/>
<feBlend mode="normal" in2="BackgroundImageFix" result="effect1_dropShadow"/>
<feBlend mode="normal" in="SourceGraphic" in2="effect1_dropShadow" result="shape"/>
</filter>
<linearGradient id="paint0_linear" x1="30.5" y1="0" x2="30.5" y2="60" gradientUnits="userSpaceOnUse">
<stop stop-color="#0084FE"/>
<stop offset="1" stop-color="#FE00E5"/>
</linearGradient>
</defs>
</svg>
