<svg width="102" height="103" viewBox="0 0 102 103" fill="none" xmlns="http://www.w3.org/2000/svg">
<path d="M49.9918 1.36066C22.361 1.86077 0.404693 24.6245 0.904839 52.2573C1.40495 79.8881 24.1687 101.844 51.8015 101.344C79.4323 100.844 101.389 78.0804 100.888 50.4476C100.388 22.8168 77.6246 0.860518 49.9918 1.36066ZM63.7022 33.8546L69.1256 28.2313C70.2486 27.0667 72.1034 27.0331 73.268 28.1563C74.4327 29.2796 74.4663 31.1342 73.343 32.2988L67.9197 37.9221C66.7966 39.0868 64.9417 39.1203 63.7772 37.9971C62.6125 36.8738 62.579 35.0192 63.7022 33.8546ZM47.4373 22.1134C47.408 20.4957 48.6958 19.1605 50.3135 19.1312C51.9312 19.1019 53.2664 20.3897 53.2957 22.0074L53.3664 25.913C53.3957 27.5307 52.1079 28.8659 50.4902 28.8952C48.8725 28.9245 47.5372 27.6367 47.508 26.019L47.4373 22.1134ZM27.7005 28.9811C28.8236 27.8164 30.6783 27.7829 31.843 28.9061L37.4663 34.3295C38.6309 35.4527 38.6645 37.3073 37.5413 38.4719C36.4182 39.6366 34.5632 39.6702 33.3988 38.5469L27.7755 33.1236C26.6108 32.0003 26.5773 30.1457 27.7005 28.9811ZM21.6576 54.8119C20.0399 54.8411 18.7046 53.5534 18.6754 51.9357C18.6461 50.318 19.9339 48.9827 21.5516 48.9534L25.4572 48.8828C27.0749 48.8535 28.4101 50.1412 28.4394 51.7589C28.4687 53.3767 27.1809 54.7119 25.5632 54.7412L21.6576 54.8119ZM38.0911 68.8504L32.6677 74.4736C31.5447 75.6383 29.6897 75.6719 28.5253 74.5486C27.3606 73.4254 27.327 71.5708 28.4503 70.4061L33.8736 64.7829C34.9967 63.6182 36.8515 63.5846 38.0161 64.7079C39.1808 65.8311 39.2143 67.6857 38.0911 68.8504ZM54.356 80.5915C54.3853 82.2092 53.0976 83.5445 51.4798 83.5738C49.8621 83.603 48.5269 82.3153 48.4976 80.6976L48.4269 76.792C48.3977 75.1743 49.6854 73.839 51.3031 73.8097C52.9208 73.7805 54.2561 75.0682 54.2853 76.6859L54.356 80.5915ZM51.1617 65.9985C43.0859 66.1447 36.3968 59.6934 36.2506 51.6176C36.1044 43.5417 42.5557 36.8526 50.6316 36.7064C58.7074 36.5603 65.3965 43.0116 65.5427 51.0874C65.6889 59.1632 59.2376 65.8523 51.1617 65.9985ZM74.0928 73.7239C72.9697 74.8885 71.1148 74.9221 69.9503 73.7988L64.327 68.3755C63.1624 67.2523 63.1288 65.3977 64.2521 64.233C65.3751 63.0684 67.2299 63.0348 68.3945 64.158L74.0178 69.5814C75.1825 70.7046 75.216 72.5592 74.0928 73.7239ZM80.2417 53.7515L76.3361 53.8222C74.7184 53.8515 73.3832 52.5637 73.3539 50.946C73.3246 49.3283 74.6124 47.9931 76.2301 47.9638L80.1357 47.8931C81.7534 47.8638 83.0887 49.1516 83.1179 50.7693C83.1472 52.387 81.8595 53.7222 80.2417 53.7515Z" fill="url(#paint0_linear)"/>
<defs>
<linearGradient id="paint0_linear" x1="49.9918" y1="1.36066" x2="51.8015" y2="101.344" gradientUnits="userSpaceOnUse">
<stop stop-color="#E233BB"/>
<stop offset="1" stop-color="#377DEB"/>
</linearGradient>
</defs>
</svg>
