<svg width="274" height="53" viewBox="0 0 274 53" fill="none" xmlns="http://www.w3.org/2000/svg">
<rect width="274" height="53" fill="white"/>
<rect width="274" height="53" rx="26.5" fill="#004EC2"/>
<path d="M79.916 34.0273H86.3711V36H77.4453V21.7812H79.916V34.0273ZM87.5918 30.6191C87.5918 29.584 87.7969 28.653 88.207 27.8262C88.6172 26.9928 89.1934 26.3548 89.9355 25.9121C90.6777 25.4629 91.5306 25.2383 92.4941 25.2383C93.9199 25.2383 95.0755 25.6973 95.9609 26.6152C96.8529 27.5332 97.3346 28.7507 97.4062 30.2676L97.416 30.8242C97.416 31.8659 97.2142 32.7969 96.8105 33.6172C96.4134 34.4375 95.8405 35.0723 95.0918 35.5215C94.3496 35.9707 93.4902 36.1953 92.5137 36.1953C91.0228 36.1953 89.8281 35.7005 88.9297 34.7109C88.0378 33.7148 87.5918 32.39 87.5918 30.7363V30.6191ZM89.9648 30.8242C89.9648 31.9115 90.1895 32.7643 90.6387 33.3828C91.0879 33.9948 91.7129 34.3008 92.5137 34.3008C93.3145 34.3008 93.9362 33.9883 94.3789 33.3633C94.8281 32.7383 95.0527 31.8236 95.0527 30.6191C95.0527 29.5514 94.8216 28.7051 94.3594 28.0801C93.9036 27.4551 93.2819 27.1426 92.4941 27.1426C91.7194 27.1426 91.1042 27.4518 90.6484 28.0703C90.1927 28.6823 89.9648 29.6003 89.9648 30.8242ZM99.0078 30.6387C99.0078 28.998 99.3919 27.6895 100.16 26.7129C100.935 25.7298 101.96 25.2383 103.236 25.2383C104.441 25.2383 105.388 25.6582 106.078 26.498L106.186 25.4336H108.324V35.6777C108.324 37.0645 107.891 38.1582 107.025 38.959C106.166 39.7598 105.004 40.1602 103.539 40.1602C102.764 40.1602 102.006 39.9974 101.264 39.6719C100.528 39.3529 99.9681 38.9329 99.584 38.4121L100.707 36.9863C101.436 37.8522 102.335 38.2852 103.402 38.2852C104.19 38.2852 104.812 38.0703 105.268 37.6406C105.723 37.2174 105.951 36.5924 105.951 35.7656V35.0527C105.268 35.8145 104.356 36.1953 103.217 36.1953C101.98 36.1953 100.967 35.7038 100.18 34.7207C99.3984 33.7376 99.0078 32.377 99.0078 30.6387ZM101.371 30.8438C101.371 31.9049 101.586 32.7415 102.016 33.3535C102.452 33.959 103.054 34.2617 103.822 34.2617C104.779 34.2617 105.489 33.8516 105.951 33.0312V28.3828C105.502 27.582 104.799 27.1816 103.842 27.1816C103.061 27.1816 102.452 27.4909 102.016 28.1094C101.586 28.7279 101.371 29.6393 101.371 30.8438ZM113.295 36H110.922V25.4336H113.295V36ZM110.775 22.6895C110.775 22.3249 110.889 22.0221 111.117 21.7812C111.352 21.5404 111.684 21.4199 112.113 21.4199C112.543 21.4199 112.875 21.5404 113.109 21.7812C113.344 22.0221 113.461 22.3249 113.461 22.6895C113.461 23.0475 113.344 23.347 113.109 23.5879C112.875 23.8223 112.543 23.9395 112.113 23.9395C111.684 23.9395 111.352 23.8223 111.117 23.5879C110.889 23.347 110.775 23.0475 110.775 22.6895ZM118.09 25.4336L118.158 26.6543C118.939 25.7103 119.965 25.2383 121.234 25.2383C123.435 25.2383 124.555 26.498 124.594 29.0176V36H122.221V29.1543C122.221 28.4837 122.074 27.9889 121.781 27.6699C121.495 27.3444 121.023 27.1816 120.365 27.1816C119.408 27.1816 118.695 27.6146 118.227 28.4805V36H115.854V25.4336H118.09ZM135.727 32.9922L137.963 25.4336H140.414L136.752 36H134.691L131 25.4336H133.461L135.727 32.9922ZM144.428 36H142.055V25.4336H144.428V36ZM141.908 22.6895C141.908 22.3249 142.022 22.0221 142.25 21.7812C142.484 21.5404 142.816 21.4199 143.246 21.4199C143.676 21.4199 144.008 21.5404 144.242 21.7812C144.477 22.0221 144.594 22.3249 144.594 22.6895C144.594 23.0475 144.477 23.347 144.242 23.5879C144.008 23.8223 143.676 23.9395 143.246 23.9395C142.816 23.9395 142.484 23.8223 142.25 23.5879C142.022 23.347 141.908 23.0475 141.908 22.6895ZM153.334 36C153.23 35.7982 153.139 35.4694 153.061 35.0137C152.305 35.8014 151.381 36.1953 150.287 36.1953C149.226 36.1953 148.36 35.8926 147.689 35.2871C147.019 34.6816 146.684 33.9329 146.684 33.041C146.684 31.9147 147.1 31.0521 147.934 30.4531C148.773 29.8477 149.971 29.5449 151.527 29.5449H152.982V28.8516C152.982 28.3047 152.829 27.8685 152.523 27.543C152.217 27.2109 151.752 27.0449 151.127 27.0449C150.587 27.0449 150.144 27.1816 149.799 27.4551C149.454 27.722 149.281 28.0638 149.281 28.4805H146.908C146.908 27.901 147.1 27.3607 147.484 26.8594C147.868 26.3516 148.389 25.9544 149.047 25.668C149.711 25.3815 150.45 25.2383 151.264 25.2383C152.501 25.2383 153.487 25.5508 154.223 26.1758C154.958 26.7943 155.336 27.6667 155.355 28.793V33.5586C155.355 34.5091 155.489 35.2676 155.756 35.834V36H153.334ZM150.727 34.291C151.195 34.291 151.635 34.1771 152.045 33.9492C152.462 33.7214 152.774 33.4154 152.982 33.0312V31.0391H151.703C150.824 31.0391 150.163 31.1921 149.721 31.498C149.278 31.804 149.057 32.237 149.057 32.7969C149.057 33.2526 149.206 33.6172 149.506 33.8906C149.812 34.1576 150.219 34.291 150.727 34.291ZM171.244 29.9746H165.521V36H163.051V21.7812H172.084V23.7734H165.521V28.002H171.244V29.9746ZM179.799 36C179.695 35.7982 179.604 35.4694 179.525 35.0137C178.77 35.8014 177.846 36.1953 176.752 36.1953C175.691 36.1953 174.825 35.8926 174.154 35.2871C173.484 34.6816 173.148 33.9329 173.148 33.041C173.148 31.9147 173.565 31.0521 174.398 30.4531C175.238 29.8477 176.436 29.5449 177.992 29.5449H179.447V28.8516C179.447 28.3047 179.294 27.8685 178.988 27.543C178.682 27.2109 178.217 27.0449 177.592 27.0449C177.051 27.0449 176.609 27.1816 176.264 27.4551C175.919 27.722 175.746 28.0638 175.746 28.4805H173.373C173.373 27.901 173.565 27.3607 173.949 26.8594C174.333 26.3516 174.854 25.9544 175.512 25.668C176.176 25.3815 176.915 25.2383 177.729 25.2383C178.965 25.2383 179.952 25.5508 180.688 26.1758C181.423 26.7943 181.801 27.6667 181.82 28.793V33.5586C181.82 34.5091 181.954 35.2676 182.221 35.834V36H179.799ZM177.191 34.291C177.66 34.291 178.1 34.1771 178.51 33.9492C178.926 33.7214 179.239 33.4154 179.447 33.0312V31.0391H178.168C177.289 31.0391 176.628 31.1921 176.186 31.498C175.743 31.804 175.521 32.237 175.521 32.7969C175.521 33.2526 175.671 33.6172 175.971 33.8906C176.277 34.1576 176.684 34.291 177.191 34.291ZM188.646 34.3008C189.239 34.3008 189.73 34.1283 190.121 33.7832C190.512 33.4382 190.72 33.0117 190.746 32.5039H192.982C192.956 33.1615 192.751 33.7767 192.367 34.3496C191.983 34.916 191.462 35.3652 190.805 35.6973C190.147 36.0293 189.438 36.1953 188.676 36.1953C187.198 36.1953 186.026 35.7168 185.16 34.7598C184.294 33.8027 183.861 32.4811 183.861 30.7949V30.5508C183.861 28.9427 184.291 27.6569 185.15 26.6934C186.01 25.7233 187.182 25.2383 188.666 25.2383C189.923 25.2383 190.945 25.6061 191.732 26.3418C192.527 27.071 192.943 28.0312 192.982 29.2227H190.746C190.72 28.6172 190.512 28.1191 190.121 27.7285C189.737 27.3379 189.245 27.1426 188.646 27.1426C187.878 27.1426 187.286 27.4225 186.869 27.9824C186.452 28.5358 186.241 29.3789 186.234 30.5117V30.8926C186.234 32.0384 186.439 32.8945 186.85 33.4609C187.266 34.0208 187.865 34.3008 188.646 34.3008ZM199.428 36.1953C197.924 36.1953 196.703 35.7233 195.766 34.7793C194.835 33.8288 194.369 32.5658 194.369 30.9902V30.6973C194.369 29.6426 194.571 28.7018 194.975 27.875C195.385 27.0417 195.958 26.3939 196.693 25.9316C197.429 25.4694 198.249 25.2383 199.154 25.2383C200.593 25.2383 201.703 25.6973 202.484 26.6152C203.272 27.5332 203.666 28.832 203.666 30.5117V31.4688H196.762C196.833 32.3411 197.123 33.0312 197.631 33.5391C198.145 34.0469 198.79 34.3008 199.564 34.3008C200.652 34.3008 201.537 33.8613 202.221 32.9824L203.5 34.2031C203.077 34.8346 202.51 35.3262 201.801 35.6777C201.098 36.0228 200.307 36.1953 199.428 36.1953ZM199.145 27.1426C198.493 27.1426 197.966 27.3704 197.562 27.8262C197.165 28.2819 196.911 28.9167 196.801 29.7305H201.322V29.5547C201.27 28.7604 201.059 28.1615 200.688 27.7578C200.316 27.3477 199.802 27.1426 199.145 27.1426ZM214.789 30.8242C214.789 32.4648 214.421 33.7702 213.686 34.7402C212.956 35.7103 211.951 36.1953 210.668 36.1953C209.431 36.1953 208.467 35.7493 207.777 34.8574L207.66 36H205.512V21H207.885V26.4492C208.568 25.6419 209.49 25.2383 210.648 25.2383C211.938 25.2383 212.95 25.7168 213.686 26.6738C214.421 27.6309 214.789 28.9688 214.789 30.6875V30.8242ZM212.416 30.6191C212.416 29.4733 212.214 28.6139 211.811 28.041C211.407 27.4681 210.821 27.1816 210.053 27.1816C209.024 27.1816 208.301 27.6309 207.885 28.5293V32.8848C208.308 33.8027 209.037 34.2617 210.072 34.2617C210.814 34.2617 211.387 33.985 211.791 33.4316C212.195 32.8783 212.403 32.0417 212.416 30.9219V30.6191ZM216.342 30.6191C216.342 29.584 216.547 28.653 216.957 27.8262C217.367 26.9928 217.943 26.3548 218.686 25.9121C219.428 25.4629 220.281 25.2383 221.244 25.2383C222.67 25.2383 223.826 25.6973 224.711 26.6152C225.603 27.5332 226.085 28.7507 226.156 30.2676L226.166 30.8242C226.166 31.8659 225.964 32.7969 225.561 33.6172C225.163 34.4375 224.59 35.0723 223.842 35.5215C223.1 35.9707 222.24 36.1953 221.264 36.1953C219.773 36.1953 218.578 35.7005 217.68 34.7109C216.788 33.7148 216.342 32.39 216.342 30.7363V30.6191ZM218.715 30.8242C218.715 31.9115 218.939 32.7643 219.389 33.3828C219.838 33.9948 220.463 34.3008 221.264 34.3008C222.064 34.3008 222.686 33.9883 223.129 33.3633C223.578 32.7383 223.803 31.8236 223.803 30.6191C223.803 29.5514 223.572 28.7051 223.109 28.0801C222.654 27.4551 222.032 27.1426 221.244 27.1426C220.469 27.1426 219.854 27.4518 219.398 28.0703C218.943 28.6823 218.715 29.6003 218.715 30.8242ZM227.729 30.6191C227.729 29.584 227.934 28.653 228.344 27.8262C228.754 26.9928 229.33 26.3548 230.072 25.9121C230.814 25.4629 231.667 25.2383 232.631 25.2383C234.057 25.2383 235.212 25.6973 236.098 26.6152C236.99 27.5332 237.471 28.7507 237.543 30.2676L237.553 30.8242C237.553 31.8659 237.351 32.7969 236.947 33.6172C236.55 34.4375 235.977 35.0723 235.229 35.5215C234.486 35.9707 233.627 36.1953 232.65 36.1953C231.16 36.1953 229.965 35.7005 229.066 34.7109C228.174 33.7148 227.729 32.39 227.729 30.7363V30.6191ZM230.102 30.8242C230.102 31.9115 230.326 32.7643 230.775 33.3828C231.225 33.9948 231.85 34.3008 232.65 34.3008C233.451 34.3008 234.073 33.9883 234.516 33.3633C234.965 32.7383 235.189 31.8236 235.189 30.6191C235.189 29.5514 234.958 28.7051 234.496 28.0801C234.04 27.4551 233.419 27.1426 232.631 27.1426C231.856 27.1426 231.241 27.4518 230.785 28.0703C230.329 28.6823 230.102 29.6003 230.102 30.8242ZM242.992 31.4688L241.938 32.5527V36H239.564V21H241.938V29.6523L242.68 28.7246L245.6 25.4336H248.451L244.525 29.8379L248.871 36H246.127L242.992 31.4688Z" fill="white" fill-opacity="0.87"/>
</svg>
