<svg width="80" height="80" viewBox="0 0 80 80" fill="none" xmlns="http://www.w3.org/2000/svg">
<g filter="url(#filter0_d)">
<circle cx="40" cy="36" r="36" fill="white"/>
<path d="M34.4961 25.3911C34.4961 26.2227 34.4961 29.9345 34.4961 29.9345H31.0666V35.4902H34.4961V51.9999H41.5411V35.4907H46.2687C46.2687 35.4907 46.7114 32.8268 46.926 29.914C46.3107 29.914 41.5678 29.914 41.5678 29.914C41.5678 29.914 41.5678 26.6819 41.5678 26.1154C41.5678 25.5476 42.3359 24.7839 43.0951 24.7839C43.8529 24.7839 45.4522 24.7839 46.9335 24.7839C46.9335 24.0275 46.9335 21.4139 46.9335 19.0001C44.956 19.0001 42.7063 19.0001 41.7146 19.0001C34.322 18.9997 34.4961 24.5609 34.4961 25.3911Z" fill="#2F80ED"/>
</g>
<defs>
<filter id="filter0_d" x="0" y="0" width="80" height="80" filterUnits="userSpaceOnUse" color-interpolation-filters="sRGB">
<feFlood flood-opacity="0" result="BackgroundImageFix"/>
<feColorMatrix in="SourceAlpha" type="matrix" values="0 0 0 0 0 0 0 0 0 0 0 0 0 0 0 0 0 0 127 0"/>
<feOffset dy="4"/>
<feGaussianBlur stdDeviation="2"/>
<feColorMatrix type="matrix" values="0 0 0 0 0 0 0 0 0 0 0 0 0 0 0 0 0 0 0.25 0"/>
<feBlend mode="normal" in2="BackgroundImageFix" result="effect1_dropShadow"/>
<feBlend mode="normal" in="SourceGraphic" in2="effect1_dropShadow" result="shape"/>
</filter>
</defs>
</svg>
