<svg width="104" height="104" viewBox="0 0 104 104" fill="none" xmlns="http://www.w3.org/2000/svg">
<ellipse cx="52.5" cy="53.2896" rx="28.274" ry="39.819" transform="rotate(-88.5955 52.5 53.2896)" fill="white"/>
<path d="M83.1909 58.2001C83.1705 57.3065 82.8049 56.6763 82.0946 56.3094L71.5456 51.5694C72.7409 50.7757 73.6895 49.6685 74.3915 48.2475C75.093 46.8266 75.4242 45.2226 75.3834 43.4355C75.3267 40.9463 74.5281 38.8252 72.987 37.0724C71.4464 35.3195 69.5915 34.4679 67.4212 34.5175C66.6553 34.5349 65.9402 34.679 65.2757 34.9496C64.6118 35.2202 63.9963 35.5536 63.4306 35.9496C64.1763 37.8484 64.5717 39.787 64.6168 41.7656C64.688 44.8931 63.9225 47.7523 62.3217 50.3432C62.6481 50.6551 62.9578 50.9354 63.2505 51.1841C63.5435 51.4329 63.8518 51.6493 64.1753 51.8335L71.0447 54.8376C72.0133 55.3264 72.796 56.0269 73.3915 56.9392C73.9871 57.8516 74.2979 58.8822 74.3241 60.0315L74.5248 68.8393L81.7052 68.6753C82.2158 68.6636 82.6259 68.4467 82.9356 68.0244C83.2453 67.6027 83.3936 67.1043 83.3805 66.53L83.1909 58.2001ZM71.0691 60.1054C71.0429 58.9561 70.5787 58.2008 69.6764 57.8383L60.4809 53.6421L56.6099 51.911C57.4285 51.3814 58.1635 50.7101 58.8155 49.897C59.4671 49.0838 60.0053 48.1616 60.4288 47.1301C60.7303 46.3569 60.9824 45.521 61.1854 44.6224C61.3889 43.7237 61.4795 42.7957 61.4577 41.8383C61.4461 41.3277 61.4029 40.8337 61.3282 40.3565C61.2534 39.8793 61.1464 39.3868 61.0071 38.8791C60.3774 36.4669 59.1995 34.5142 57.4732 33.021C55.7467 31.5278 53.7668 30.8067 51.5329 30.8577C49.299 30.9088 47.3694 31.7032 45.7441 33.241C44.1188 34.7788 43.0451 36.7031 42.523 39.014C42.23 40.1701 42.0952 41.2588 42.1185 42.28C42.1621 44.1948 42.6191 46.0363 43.4896 47.8044C44.4906 49.6973 45.8332 51.1674 47.5174 52.2145L43.9186 54.0209L34.6343 58.5434C33.6871 59.0121 33.2266 59.8208 33.2528 60.97L33.4534 69.7778L33.4883 71.3096C33.5043 72.0117 33.7252 72.5974 34.151 73.0666C34.5768 73.5358 35.1088 73.7631 35.747 73.7485L69.2556 72.9831C69.8301 72.97 70.3193 72.7193 70.7227 72.2312C71.1267 71.7425 71.3209 71.1479 71.3049 70.4458L71.27 68.914L71.0691 60.1054ZM30.0929 61.0414C30.0667 59.8921 30.3303 58.8484 30.8837 57.9098C31.437 56.9712 32.1866 56.2356 33.1323 55.7032L40.1428 52.2861C40.7724 51.8885 41.2728 51.4301 41.6441 50.9107C40.7867 49.717 40.1179 48.3912 39.6377 46.9334C39.1575 45.4757 38.8992 43.9489 38.8629 42.3533C38.8381 41.2683 38.9262 40.2285 39.127 39.2341C39.3279 38.2397 39.5777 37.2921 39.8765 36.3913C38.7087 35.5878 37.4227 35.2021 36.0186 35.2341C33.8485 35.2837 32.0339 36.2192 30.5747 38.0406C29.1155 39.862 28.4142 42.0172 28.4709 44.5065C28.5117 46.2936 28.9313 47.8964 29.73 49.315C30.5286 50.7336 31.5749 51.8113 32.8689 52.548L22.3531 57.6734C21.6583 58.0086 21.3218 58.6549 21.3436 59.6122L21.5333 67.9415C21.5464 68.5159 21.7173 69.0069 22.0458 69.414C22.3744 69.8216 22.794 70.0197 23.3046 70.0081L30.2935 69.8484L30.0929 61.0414ZM51.0218 4.23978C57.5959 4.08961 63.8316 5.20839 69.7291 7.5961C75.6266 9.98381 80.7786 13.2826 85.185 17.4924C89.5914 21.7022 93.1217 26.6984 95.7759 32.4808C98.43 38.2633 99.832 44.4415 99.9818 51.0156C100.082 55.4196 99.6044 59.6771 98.5486 63.7882C97.4923 67.8988 95.968 71.7492 93.9744 75.3394C91.9808 78.9291 89.565 82.2091 86.7271 85.1795C83.8895 88.1499 80.7227 90.7132 77.2276 92.868C73.7322 95.0233 69.9556 96.722 65.8966 97.9642C61.8383 99.2063 57.6069 99.8777 53.2029 99.9783C48.799 100.079 44.5415 99.6014 40.4304 98.5459C36.3194 97.4899 32.4691 95.9659 28.8795 93.9724C25.2899 91.979 22.01 89.5634 19.0397 86.7257C16.0695 83.8883 13.5069 80.7216 11.3518 77.2267C9.19676 73.7314 7.49828 69.955 6.25634 65.8962C5.01442 61.8378 4.34329 57.6065 4.24295 53.2025C4.14262 48.7985 4.62036 44.541 5.67616 40.4299C6.73196 36.3188 8.25668 32.4684 10.2503 28.8787C12.244 25.289 14.6597 22.009 17.4977 19.0386C20.3356 16.0682 23.5021 13.5053 26.9971 11.3501C30.4922 9.19482 34.2691 7.49611 38.3278 6.25394C42.3865 5.01177 46.6178 4.34038 51.0218 4.23978Z" fill="url(#paint0_linear)"/>
<defs>
<linearGradient id="paint0_linear" x1="51.0218" y1="4.23978" x2="53.2087" y2="99.9782" gradientUnits="userSpaceOnUse">
<stop stop-color="#D921BC"/>
<stop offset="1" stop-color="#0040E6"/>
</linearGradient>
</defs>
</svg>
