<svg width="80" height="80" viewBox="0 0 80 80" fill="none" xmlns="http://www.w3.org/2000/svg">
<g filter="url(#filter0_d)">
<path d="M76 36C76 55.8823 59.8823 72 40 72C20.1177 72 4 55.8823 4 36C4 16.1177 20.1177 0 40 0C59.8823 0 76 16.1177 76 36Z" fill="white"/>
<path d="M60.9375 34V28H58.125V34H52.5V37H58.125V43H60.9375V37H66.5625V34H60.9375Z" fill="#FF0000"/>
<path d="M33.5625 33V39H41.5191C40.3575 42.492 37.23 45 33.5625 45C28.9106 45 25.125 40.962 25.125 36C25.125 31.038 28.9106 27 33.5625 27C35.5791 27 37.5197 27.771 39.0272 29.172L42.7228 24.648C40.1916 22.296 36.9403 21 33.5625 21C25.8084 21 19.5 27.729 19.5 36C19.5 44.271 25.8084 51 33.5625 51C41.3166 51 47.625 44.271 47.625 36V33H33.5625Z" fill="#FF0000"/>
</g>
<defs>
<filter id="filter0_d" x="0" y="0" width="80" height="80" filterUnits="userSpaceOnUse" color-interpolation-filters="sRGB">
<feFlood flood-opacity="0" result="BackgroundImageFix"/>
<feColorMatrix in="SourceAlpha" type="matrix" values="0 0 0 0 0 0 0 0 0 0 0 0 0 0 0 0 0 0 127 0"/>
<feOffset dy="4"/>
<feGaussianBlur stdDeviation="2"/>
<feColorMatrix type="matrix" values="0 0 0 0 0 0 0 0 0 0 0 0 0 0 0 0 0 0 0.25 0"/>
<feBlend mode="normal" in2="BackgroundImageFix" result="effect1_dropShadow"/>
<feBlend mode="normal" in="SourceGraphic" in2="effect1_dropShadow" result="shape"/>
</filter>
</defs>
</svg>
