<svg width="274" height="53" viewBox="0 0 274 53" fill="none" xmlns="http://www.w3.org/2000/svg">
<rect width="274" height="53" rx="26.5" fill="#FF0000"/>
<path d="M79.916 34.0273H86.3711V36H77.4453V21.7812H79.916V34.0273ZM87.5918 30.6191C87.5918 29.584 87.7969 28.653 88.207 27.8262C88.6172 26.9928 89.1934 26.3548 89.9355 25.9121C90.6777 25.4629 91.5306 25.2383 92.4941 25.2383C93.9199 25.2383 95.0755 25.6973 95.9609 26.6152C96.8529 27.5332 97.3346 28.7507 97.4062 30.2676L97.416 30.8242C97.416 31.8659 97.2142 32.7969 96.8105 33.6172C96.4134 34.4375 95.8405 35.0723 95.0918 35.5215C94.3496 35.9707 93.4902 36.1953 92.5137 36.1953C91.0228 36.1953 89.8281 35.7005 88.9297 34.7109C88.0378 33.7148 87.5918 32.39 87.5918 30.7363V30.6191ZM89.9648 30.8242C89.9648 31.9115 90.1895 32.7643 90.6387 33.3828C91.0879 33.9948 91.7129 34.3008 92.5137 34.3008C93.3145 34.3008 93.9362 33.9883 94.3789 33.3633C94.8281 32.7383 95.0527 31.8236 95.0527 30.6191C95.0527 29.5514 94.8216 28.7051 94.3594 28.0801C93.9036 27.4551 93.2819 27.1426 92.4941 27.1426C91.7194 27.1426 91.1042 27.4518 90.6484 28.0703C90.1927 28.6823 89.9648 29.6003 89.9648 30.8242ZM99.0078 30.6387C99.0078 28.998 99.3919 27.6895 100.16 26.7129C100.935 25.7298 101.96 25.2383 103.236 25.2383C104.441 25.2383 105.388 25.6582 106.078 26.498L106.186 25.4336H108.324V35.6777C108.324 37.0645 107.891 38.1582 107.025 38.959C106.166 39.7598 105.004 40.1602 103.539 40.1602C102.764 40.1602 102.006 39.9974 101.264 39.6719C100.528 39.3529 99.9681 38.9329 99.584 38.4121L100.707 36.9863C101.436 37.8522 102.335 38.2852 103.402 38.2852C104.19 38.2852 104.812 38.0703 105.268 37.6406C105.723 37.2174 105.951 36.5924 105.951 35.7656V35.0527C105.268 35.8145 104.356 36.1953 103.217 36.1953C101.98 36.1953 100.967 35.7038 100.18 34.7207C99.3984 33.7376 99.0078 32.377 99.0078 30.6387ZM101.371 30.8438C101.371 31.9049 101.586 32.7415 102.016 33.3535C102.452 33.959 103.054 34.2617 103.822 34.2617C104.779 34.2617 105.489 33.8516 105.951 33.0312V28.3828C105.502 27.582 104.799 27.1816 103.842 27.1816C103.061 27.1816 102.452 27.4909 102.016 28.1094C101.586 28.7279 101.371 29.6393 101.371 30.8438ZM113.295 36H110.922V25.4336H113.295V36ZM110.775 22.6895C110.775 22.3249 110.889 22.0221 111.117 21.7812C111.352 21.5404 111.684 21.4199 112.113 21.4199C112.543 21.4199 112.875 21.5404 113.109 21.7812C113.344 22.0221 113.461 22.3249 113.461 22.6895C113.461 23.0475 113.344 23.347 113.109 23.5879C112.875 23.8223 112.543 23.9395 112.113 23.9395C111.684 23.9395 111.352 23.8223 111.117 23.5879C110.889 23.347 110.775 23.0475 110.775 22.6895ZM118.09 25.4336L118.158 26.6543C118.939 25.7103 119.965 25.2383 121.234 25.2383C123.435 25.2383 124.555 26.498 124.594 29.0176V36H122.221V29.1543C122.221 28.4837 122.074 27.9889 121.781 27.6699C121.495 27.3444 121.023 27.1816 120.365 27.1816C119.408 27.1816 118.695 27.6146 118.227 28.4805V36H115.854V25.4336H118.09ZM135.727 32.9922L137.963 25.4336H140.414L136.752 36H134.691L131 25.4336H133.461L135.727 32.9922ZM144.428 36H142.055V25.4336H144.428V36ZM141.908 22.6895C141.908 22.3249 142.022 22.0221 142.25 21.7812C142.484 21.5404 142.816 21.4199 143.246 21.4199C143.676 21.4199 144.008 21.5404 144.242 21.7812C144.477 22.0221 144.594 22.3249 144.594 22.6895C144.594 23.0475 144.477 23.347 144.242 23.5879C144.008 23.8223 143.676 23.9395 143.246 23.9395C142.816 23.9395 142.484 23.8223 142.25 23.5879C142.022 23.347 141.908 23.0475 141.908 22.6895ZM153.334 36C153.23 35.7982 153.139 35.4694 153.061 35.0137C152.305 35.8014 151.381 36.1953 150.287 36.1953C149.226 36.1953 148.36 35.8926 147.689 35.2871C147.019 34.6816 146.684 33.9329 146.684 33.041C146.684 31.9147 147.1 31.0521 147.934 30.4531C148.773 29.8477 149.971 29.5449 151.527 29.5449H152.982V28.8516C152.982 28.3047 152.829 27.8685 152.523 27.543C152.217 27.2109 151.752 27.0449 151.127 27.0449C150.587 27.0449 150.144 27.1816 149.799 27.4551C149.454 27.722 149.281 28.0638 149.281 28.4805H146.908C146.908 27.901 147.1 27.3607 147.484 26.8594C147.868 26.3516 148.389 25.9544 149.047 25.668C149.711 25.3815 150.45 25.2383 151.264 25.2383C152.501 25.2383 153.487 25.5508 154.223 26.1758C154.958 26.7943 155.336 27.6667 155.355 28.793V33.5586C155.355 34.5091 155.489 35.2676 155.756 35.834V36H153.334ZM150.727 34.291C151.195 34.291 151.635 34.1771 152.045 33.9492C152.462 33.7214 152.774 33.4154 152.982 33.0312V31.0391H151.703C150.824 31.0391 150.163 31.1921 149.721 31.498C149.278 31.804 149.057 32.237 149.057 32.7969C149.057 33.2526 149.206 33.6172 149.506 33.8906C149.812 34.1576 150.219 34.291 150.727 34.291ZM173.949 34.1543C173.435 34.8249 172.722 35.3327 171.811 35.6777C170.899 36.0228 169.864 36.1953 168.705 36.1953C167.514 36.1953 166.459 35.9251 165.541 35.3848C164.623 34.8444 163.913 34.0729 163.412 33.0703C162.917 32.0612 162.66 30.8861 162.641 29.5449V28.4316C162.641 26.2832 163.155 24.6068 164.184 23.4023C165.212 22.1914 166.648 21.5859 168.49 21.5859C170.072 21.5859 171.329 21.9766 172.26 22.7578C173.191 23.5391 173.751 24.6654 173.939 26.1367H171.518C171.244 24.4245 170.251 23.5684 168.539 23.5684C167.432 23.5684 166.589 23.9688 166.01 24.7695C165.437 25.5638 165.141 26.7324 165.121 28.2754V29.3691C165.121 30.9056 165.443 32.1003 166.088 32.9531C166.739 33.7995 167.641 34.2227 168.793 34.2227C170.056 34.2227 170.954 33.9362 171.488 33.3633V30.5801H168.559V28.7051H173.949V34.1543ZM175.99 30.6191C175.99 29.584 176.195 28.653 176.605 27.8262C177.016 26.9928 177.592 26.3548 178.334 25.9121C179.076 25.4629 179.929 25.2383 180.893 25.2383C182.318 25.2383 183.474 25.6973 184.359 26.6152C185.251 27.5332 185.733 28.7507 185.805 30.2676L185.814 30.8242C185.814 31.8659 185.613 32.7969 185.209 33.6172C184.812 34.4375 184.239 35.0723 183.49 35.5215C182.748 35.9707 181.889 36.1953 180.912 36.1953C179.421 36.1953 178.227 35.7005 177.328 34.7109C176.436 33.7148 175.99 32.39 175.99 30.7363V30.6191ZM178.363 30.8242C178.363 31.9115 178.588 32.7643 179.037 33.3828C179.486 33.9948 180.111 34.3008 180.912 34.3008C181.713 34.3008 182.335 33.9883 182.777 33.3633C183.227 32.7383 183.451 31.8236 183.451 30.6191C183.451 29.5514 183.22 28.7051 182.758 28.0801C182.302 27.4551 181.68 27.1426 180.893 27.1426C180.118 27.1426 179.503 27.4518 179.047 28.0703C178.591 28.6823 178.363 29.6003 178.363 30.8242ZM187.377 30.6191C187.377 29.584 187.582 28.653 187.992 27.8262C188.402 26.9928 188.979 26.3548 189.721 25.9121C190.463 25.4629 191.316 25.2383 192.279 25.2383C193.705 25.2383 194.861 25.6973 195.746 26.6152C196.638 27.5332 197.12 28.7507 197.191 30.2676L197.201 30.8242C197.201 31.8659 196.999 32.7969 196.596 33.6172C196.199 34.4375 195.626 35.0723 194.877 35.5215C194.135 35.9707 193.275 36.1953 192.299 36.1953C190.808 36.1953 189.613 35.7005 188.715 34.7109C187.823 33.7148 187.377 32.39 187.377 30.7363V30.6191ZM189.75 30.8242C189.75 31.9115 189.975 32.7643 190.424 33.3828C190.873 33.9948 191.498 34.3008 192.299 34.3008C193.1 34.3008 193.721 33.9883 194.164 33.3633C194.613 32.7383 194.838 31.8236 194.838 30.6191C194.838 29.5514 194.607 28.7051 194.145 28.0801C193.689 27.4551 193.067 27.1426 192.279 27.1426C191.505 27.1426 190.889 27.4518 190.434 28.0703C189.978 28.6823 189.75 29.6003 189.75 30.8242ZM198.793 30.6387C198.793 28.998 199.177 27.6895 199.945 26.7129C200.72 25.7298 201.745 25.2383 203.021 25.2383C204.226 25.2383 205.173 25.6582 205.863 26.498L205.971 25.4336H208.109V35.6777C208.109 37.0645 207.676 38.1582 206.811 38.959C205.951 39.7598 204.789 40.1602 203.324 40.1602C202.549 40.1602 201.791 39.9974 201.049 39.6719C200.313 39.3529 199.753 38.9329 199.369 38.4121L200.492 36.9863C201.221 37.8522 202.12 38.2852 203.188 38.2852C203.975 38.2852 204.597 38.0703 205.053 37.6406C205.508 37.2174 205.736 36.5924 205.736 35.7656V35.0527C205.053 35.8145 204.141 36.1953 203.002 36.1953C201.765 36.1953 200.753 35.7038 199.965 34.7207C199.184 33.7376 198.793 32.377 198.793 30.6387ZM201.156 30.8438C201.156 31.9049 201.371 32.7415 201.801 33.3535C202.237 33.959 202.839 34.2617 203.607 34.2617C204.564 34.2617 205.274 33.8516 205.736 33.0312V28.3828C205.287 27.582 204.584 27.1816 203.627 27.1816C202.846 27.1816 202.237 27.4909 201.801 28.1094C201.371 28.7279 201.156 29.6393 201.156 30.8438ZM213.08 36H210.707V21H213.08V36ZM220.326 36.1953C218.822 36.1953 217.602 35.7233 216.664 34.7793C215.733 33.8288 215.268 32.5658 215.268 30.9902V30.6973C215.268 29.6426 215.469 28.7018 215.873 27.875C216.283 27.0417 216.856 26.3939 217.592 25.9316C218.327 25.4694 219.148 25.2383 220.053 25.2383C221.492 25.2383 222.602 25.6973 223.383 26.6152C224.171 27.5332 224.564 28.832 224.564 30.5117V31.4688H217.66C217.732 32.3411 218.021 33.0312 218.529 33.5391C219.044 34.0469 219.688 34.3008 220.463 34.3008C221.55 34.3008 222.436 33.8613 223.119 32.9824L224.398 34.2031C223.975 34.8346 223.409 35.3262 222.699 35.6777C221.996 36.0228 221.205 36.1953 220.326 36.1953ZM220.043 27.1426C219.392 27.1426 218.865 27.3704 218.461 27.8262C218.064 28.2819 217.81 28.9167 217.699 29.7305H222.221V29.5547C222.169 28.7604 221.957 28.1615 221.586 27.7578C221.215 27.3477 220.701 27.1426 220.043 27.1426Z" fill="white" fill-opacity="0.87"/>
<path d="M55.093 25.5503H42.9163V29.6092H50.3453C49.2371 33.1379 45.941 35.6976 42.0464 35.6976C37.2427 35.6976 33.3488 31.8034 33.3488 26.9999C33.3488 22.1963 37.2429 18.3023 42.0464 18.3023C44.4654 18.3023 46.6533 19.2901 48.2299 20.8839L51.1761 17.6815C48.8231 15.3758 45.6011 13.9536 42.0464 13.9536C34.8411 13.9535 29 19.7946 29 26.9999C29 34.2052 34.8411 40.0465 42.0465 40.0465C48.3582 40.0465 53.8841 35.5641 55.0931 29.6093V25.5504L55.093 25.5503Z" fill="white"/>
<path d="M63 25.5434H60.5093V23.0527H58.3743V25.5434H55.8837V27.6782H58.3743V30.1689H60.5093V27.6782H63V25.5434Z" fill="white"/>
</svg>
