<svg width="61" height="68" viewBox="0 0 61 68" fill="none" xmlns="http://www.w3.org/2000/svg">
<g filter="url(#filter0_d)">
<path d="M49.2383 6.14256C38.8902 -2.04752 22.1113 -2.04752 11.7617 6.14256C2.43701 13.5226 1.38733 27.4185 9.30077 35.769L30.5 60L51.6992 35.769C59.6127 27.4185 58.563 13.5226 49.2383 6.14256Z" fill="#FF0000"/>
</g>
<path d="M49 13.9999H47.2423V12H45.4844V13.9999H33.0626V16H30.7898L29.0318 13.9999H23.0305L21.6368 15.5859L20.5005 14.293L19.2574 15.7071L20.394 16.9999L19 18.586V20H49V13.9999Z" fill="white"/>
<path d="M27.7367 39L28.6279 31.4444H34.7908V25.7778H43.2624L45 22H19.1535V25.2245L20.802 27.0164L19 39H27.7367ZM29.5785 25.7778V27.6668H31.3158V25.7778H33.0535V29.5556H29.5785C28.6206 29.5556 27.8409 28.7079 27.8409 27.6668C27.8409 26.6255 28.6206 25.7778 29.5785 25.7778Z" fill="white"/>
<defs>
<filter id="filter0_d" x="0" y="0" width="61" height="68" filterUnits="userSpaceOnUse" color-interpolation-filters="sRGB">
<feFlood flood-opacity="0" result="BackgroundImageFix"/>
<feColorMatrix in="SourceAlpha" type="matrix" values="0 0 0 0 0 0 0 0 0 0 0 0 0 0 0 0 0 0 127 0"/>
<feOffset dy="4"/>
<feGaussianBlur stdDeviation="2"/>
<feColorMatrix type="matrix" values="0 0 0 0 0 0 0 0 0 0 0 0 0 0 0 0 0 0 0.4 0"/>
<feBlend mode="normal" in2="BackgroundImageFix" result="effect1_dropShadow"/>
<feBlend mode="normal" in="SourceGraphic" in2="effect1_dropShadow" result="shape"/>
</filter>
</defs>
</svg>
