<svg width="226" height="69" viewBox="0 0 226 69" fill="none" xmlns="http://www.w3.org/2000/svg">
<path d="M72.3184 55.1904C72.3184 53.4814 71.6689 52.1598 70.3701 51.2256C69.0941 50.2686 66.8496 49.4482 63.6367 48.7646C60.4466 48.0811 57.9059 47.2607 56.0146 46.3037C54.1462 45.3467 52.7562 44.2074 51.8447 42.8857C50.9561 41.5641 50.5117 39.9919 50.5117 38.1689C50.5117 35.1383 51.7878 32.5749 54.3398 30.4785C56.9147 28.3822 60.196 27.334 64.1836 27.334C68.3763 27.334 71.7715 28.4163 74.3691 30.5811C76.9896 32.7458 78.2998 35.5143 78.2998 38.8867H71.9424C71.9424 37.1549 71.2018 35.6624 69.7207 34.4092C68.2624 33.1559 66.4167 32.5293 64.1836 32.5293C61.8822 32.5293 60.082 33.0306 58.7832 34.0332C57.4844 35.0358 56.835 36.346 56.835 37.9639C56.835 39.4906 57.4388 40.6413 58.6465 41.416C59.8542 42.1908 62.0303 42.9313 65.1748 43.6377C68.3421 44.3441 70.9056 45.1872 72.8652 46.167C74.8249 47.1468 76.2718 48.3317 77.2061 49.7217C78.1631 51.0889 78.6416 52.7637 78.6416 54.7461C78.6416 58.0501 77.32 60.7048 74.6768 62.71C72.0335 64.6924 68.6042 65.6836 64.3887 65.6836C61.4264 65.6836 58.806 65.1595 56.5273 64.1113C54.2487 63.0632 52.46 61.6048 51.1611 59.7363C49.8851 57.8451 49.2471 55.8057 49.2471 53.6182H55.5703C55.6842 55.7373 56.5273 57.4235 58.0996 58.6768C59.6947 59.9072 61.791 60.5225 64.3887 60.5225C66.7812 60.5225 68.6953 60.0439 70.1309 59.0869C71.5892 58.1071 72.3184 56.8083 72.3184 55.1904ZM102.226 65.6836C97.2126 65.6836 93.1338 64.043 89.9893 60.7617C86.8447 57.4577 85.2725 53.0485 85.2725 47.5342V46.3721C85.2725 42.7035 85.9674 39.4336 87.3574 36.5625C88.7702 33.6686 90.7298 31.4128 93.2363 29.7949C95.7656 28.1543 98.5 27.334 101.439 27.334C106.247 27.334 109.984 28.9176 112.65 32.085C115.316 35.2523 116.649 39.7868 116.649 45.6885V48.3203H91.5957C91.6868 51.9661 92.7464 54.917 94.7744 57.1729C96.8252 59.4059 99.4229 60.5225 102.567 60.5225C104.8 60.5225 106.692 60.0667 108.241 59.1553C109.791 58.2438 111.146 57.0361 112.309 55.5322L116.171 58.54C113.072 63.3024 108.424 65.6836 102.226 65.6836ZM101.439 32.5293C98.8874 32.5293 96.7454 33.4635 95.0137 35.332C93.2819 37.1777 92.2109 39.7754 91.8008 43.125H110.326V42.6465C110.144 39.4336 109.278 36.9499 107.729 35.1953C106.179 33.418 104.083 32.5293 101.439 32.5293ZM113.061 20.2246H90.0918V15.3369H113.061V20.2246ZM127.108 65V32.9053H121.264V28.0176H127.108V24.2236C127.108 20.2588 128.168 17.194 130.287 15.0293C132.406 12.8646 135.403 11.7822 139.276 11.7822C140.735 11.7822 142.182 11.9759 143.617 12.3633L143.275 17.4902C142.204 17.2852 141.065 17.1826 139.857 17.1826C137.807 17.1826 136.223 17.7865 135.106 18.9941C133.99 20.179 133.432 21.888 133.432 24.1211V28.0176H141.327V32.9053H133.432V65H127.108ZM171.166 61.3428C168.705 64.2367 165.093 65.6836 160.331 65.6836C156.389 65.6836 153.381 64.5443 151.308 62.2656C149.257 59.9642 148.22 56.569 148.197 52.0801V28.0176H154.521V51.9092C154.521 57.5146 156.799 60.3174 161.356 60.3174C166.187 60.3174 169.4 58.5173 170.995 54.917V28.0176H177.318V65H171.303L171.166 61.3428ZM209.789 61.3428C207.328 64.2367 203.716 65.6836 198.954 65.6836C195.012 65.6836 192.004 64.5443 189.931 62.2656C187.88 59.9642 186.843 56.569 186.82 52.0801V28.0176H193.144V51.9092C193.144 57.5146 195.422 60.3174 199.979 60.3174C204.81 60.3174 208.023 58.5173 209.618 54.917V28.0176H215.941V65H209.926L209.789 61.3428Z" fill="#379BD1"/>
<path d="M31.0299 18.324C23.9319 11.226 12.4229 11.226 5.32391 18.324C-1.07209 24.72 -1.79209 36.763 3.63591 44L18.1769 65L32.7179 44C38.1459 36.763 37.4259 24.72 31.0299 18.324ZM18.3539 37C15.0399 37 12.3539 34.314 12.3539 31C12.3539 27.686 15.0399 25 18.3539 25C21.6679 25 24.3539 27.686 24.3539 31C24.3539 34.314 21.6669 37 18.3539 37Z" fill="#379BD1"/>
<g filter="url(#filter0_d)">
<path d="M26.9997 43.2C27.9687 41.017 30.1087 39 32.6837 39C36.1507 39 38.6477 41.821 38.9617 45.183C38.9617 45.183 39.1317 46.018 38.7587 47.52C38.2507 49.566 37.0577 51.384 35.4477 52.771L26.9997 60L18.5527 52.771C16.9427 51.384 15.7497 49.566 15.2417 47.52C14.8687 46.018 15.0387 45.183 15.0387 45.183C15.3517 41.821 17.8487 39 21.3157 39C23.8907 39 26.0307 41.017 26.9997 43.2Z" fill="#FF007A"/>
</g>
<defs>
<filter id="filter0_d" x="14" y="38" width="28.0003" height="25" filterUnits="userSpaceOnUse" color-interpolation-filters="sRGB">
<feFlood flood-opacity="0" result="BackgroundImageFix"/>
<feColorMatrix in="SourceAlpha" type="matrix" values="0 0 0 0 0 0 0 0 0 0 0 0 0 0 0 0 0 0 127 0"/>
<feOffset dx="1" dy="1"/>
<feGaussianBlur stdDeviation="1"/>
<feColorMatrix type="matrix" values="0 0 0 0 0 0 0 0 0 0 0 0 0 0 0 0 0 0 0.6 0"/>
<feBlend mode="darken" in2="BackgroundImageFix" result="effect1_dropShadow"/>
<feBlend mode="normal" in="SourceGraphic" in2="effect1_dropShadow" result="shape"/>
</filter>
</defs>
</svg>
