<svg width="27" height="23" viewBox="0 0 27 23" fill="none" xmlns="http://www.w3.org/2000/svg">
<path d="M12.8402 3.71515C13.433 3.69888 13.9302 3.5034 14.3318 3.12872C14.7334 2.75404 14.9246 2.31421 14.9055 1.80924C14.8864 1.30418 14.6664 0.872515 14.2457 0.514204C13.8251 0.155845 13.3183 -0.0151979 12.7255 0.00107561C12.1327 0.0173491 11.6355 0.212827 11.2339 0.587509C10.8323 0.96219 10.6315 1.40201 10.6315 1.90698C10.6315 2.41195 10.8514 2.84366 11.2913 3.20202C11.7311 3.56038 12.2474 3.73142 12.8402 3.71515Z" fill="white"/>
<path d="M20.0973 9.89713L16.9421 8.43105L14.3605 4.91245C13.8633 4.39116 13.2514 4.13054 12.5247 4.13054C12.0275 4.13054 11.5495 4.30974 11.0905 4.6681L7.18945 8.04009C7.07472 8.17043 6.99825 8.31703 6.95998 8.47992L6.44366 12.2429V12.3406C6.44366 12.5686 6.5393 12.7641 6.73051 12.927C6.92172 13.0899 7.15119 13.1714 7.41893 13.1714C7.68667 13.1714 7.90656 13.0899 8.07866 12.927C8.25077 12.7641 8.35593 12.5849 8.39419 12.3895L8.79577 9.16409L10.1726 7.99122L8.91051 16.9832L6.67314 21.2349C6.59667 21.4304 6.5584 21.6091 6.5584 21.7725C6.5584 22.1304 6.70182 22.4323 6.98866 22.6766C7.27551 22.921 7.6293 23.0267 8.04998 22.9943C8.62366 22.9943 9.04435 22.7657 9.31209 22.3101L11.7216 17.7163C11.7216 17.6835 11.7407 17.6266 11.7789 17.5452C11.8172 17.4636 11.8555 17.3903 11.8937 17.3253C11.9319 17.2601 11.951 17.1948 11.951 17.1299L12.2379 14.9307L14.7047 22.1635C14.9725 22.7499 15.4505 23.0268 16.1389 22.9943C16.5214 22.9943 16.856 22.8721 17.1429 22.6278C17.4297 22.3834 17.5731 22.0815 17.5731 21.7237C17.5731 21.6905 17.5636 21.6504 17.5445 21.6015C17.5254 21.5526 17.5158 21.5118 17.5158 21.4792L14.0737 11.461L14.4752 8.1867L15.4505 9.50617C15.527 9.60391 15.6226 9.68538 15.7373 9.75052L19.1221 11.3632C19.3516 11.4284 19.5046 11.461 19.581 11.461C19.8488 11.461 20.0782 11.3714 20.2695 11.1922C20.4607 11.0129 20.5563 10.8093 20.5563 10.5813C20.5563 10.2881 20.4033 10.06 20.0973 9.89713Z" fill="white"/>
</svg>
