<svg width="34" height="29" viewBox="0 0 34 29" fill="none" xmlns="http://www.w3.org/2000/svg">
<path d="M33.6568 14.5746L1.02493 1.96619L5.48108 14.673L1.09968 27.3971L33.6568 14.5746Z" fill="#2095D7"/>
<path d="M33.9527 14.4731C33.9525 14.3945 33.9386 14.3291 33.9248 14.2637C33.9247 14.2375 33.9111 14.2244 33.911 14.1982C33.8972 14.1459 33.8835 14.1067 33.8697 14.0543C33.856 14.0282 33.856 14.0151 33.8423 13.989C33.8149 13.9236 33.7875 13.8713 33.7465 13.806C33.7465 13.806 33.7465 13.806 33.7328 13.7929C33.6918 13.7407 33.6509 13.6885 33.6099 13.6493C33.5963 13.6363 33.5827 13.6232 33.569 13.6102C33.5281 13.571 33.4872 13.545 33.4463 13.5189C33.4327 13.5059 33.4054 13.4929 33.3918 13.4798C33.3509 13.4538 33.2964 13.4278 33.2419 13.4018C33.2283 13.3887 33.2147 13.3888 33.2011 13.3757L1.72171 1.17649C1.27241 1.00782 0.76964 1.10125 0.417215 1.41675C0.0647896 1.73226 -0.0558923 2.2172 0.0952306 2.6619L4.25686 14.5899L0.151484 26.5469C0.00347219 26.9926 0.127537 27.4767 0.482158 27.7897C0.71404 27.9984 1.01359 28.1152 1.32632 28.1142C1.47589 28.1136 1.63896 28.0869 1.7883 28.0209L33.2088 15.6019C33.2088 15.6019 33.2088 15.6019 33.2224 15.6018C33.236 15.6018 33.2496 15.5886 33.2631 15.5755C33.3174 15.5491 33.3717 15.5227 33.4124 15.4964C33.426 15.4832 33.4531 15.4701 33.4667 15.4569C33.5074 15.4306 33.548 15.3912 33.5887 15.3648C33.6023 15.3517 33.6158 15.3385 33.6294 15.3254C33.6836 15.2728 33.7242 15.2203 33.7648 15.1678C33.8054 15.1153 33.8324 15.0497 33.8593 14.9841C33.8729 14.9579 33.8728 14.9448 33.8863 14.9186C33.8997 14.8661 33.9132 14.8268 33.9266 14.7744C33.9265 14.7482 33.9401 14.735 33.94 14.7088C33.9396 14.6172 33.953 14.5386 33.9527 14.4731ZM3.2556 4.32701L26.4158 13.3078L6.41458 13.3777L3.2556 4.32701ZM6.42286 15.7478L26.4105 15.678L3.3136 24.8204L6.42286 15.7478Z" fill="white"/>
</svg>
