<svg width="375" height="44" viewBox="0 0 375 44" fill="none" xmlns="http://www.w3.org/2000/svg">
<path opacity="0.35" d="M336.5 20C336.5 18.8034 337.47 17.8333 338.667 17.8333H355.333C356.53 17.8333 357.5 18.8034 357.5 20V26C357.5 27.1966 356.53 28.1666 355.333 28.1666H338.667C337.47 28.1666 336.5 27.1966 336.5 26V20Z" stroke="black"/>
<path opacity="0.4" d="M359 21V25C359.805 24.6612 360.328 23.8731 360.328 23C360.328 22.1269 359.805 21.3388 359 21Z" fill="black"/>
<path d="M338 20.6666C338 19.9303 338.597 19.3333 339.333 19.3333H354.667C355.403 19.3333 356 19.9303 356 20.6666V25.3333C356 26.0697 355.403 26.6666 354.667 26.6666H339.333C338.597 26.6666 338 26.0697 338 25.3333V20.6666Z" fill="black"/>
<path fill-rule="evenodd" clip-rule="evenodd" d="M323.33 19.608C325.546 19.6081 327.677 20.4596 329.283 21.9863C329.404 22.1042 329.598 22.1027 329.717 21.983L330.873 20.8163C330.933 20.7556 330.967 20.6734 330.966 20.5878C330.966 20.5022 330.931 20.4204 330.87 20.3603C326.655 16.3208 320.005 16.3208 315.79 20.3603C315.729 20.4203 315.694 20.5021 315.694 20.5877C315.693 20.6733 315.727 20.7556 315.787 20.8163L316.943 21.983C317.062 22.1029 317.256 22.1044 317.377 21.9863C318.983 20.4595 321.114 19.608 323.33 19.608ZM323.33 23.4037C324.548 23.4036 325.722 23.8561 326.624 24.6733C326.746 24.7893 326.939 24.7868 327.058 24.6677L328.212 23.501C328.273 23.4398 328.307 23.3568 328.306 23.2705C328.305 23.1843 328.27 23.102 328.208 23.042C325.459 20.4856 321.204 20.4856 318.455 23.042C318.393 23.102 318.358 23.1843 318.357 23.2706C318.356 23.3569 318.39 23.4399 318.451 23.501L319.605 24.6677C319.724 24.7868 319.917 24.7893 320.039 24.6733C320.941 23.8567 322.114 23.4042 323.33 23.4037ZM325.643 25.9575C325.645 26.044 325.611 26.1274 325.549 26.188L323.552 28.2037C323.493 28.2629 323.414 28.2963 323.33 28.2963C323.247 28.2963 323.167 28.2629 323.109 28.2037L321.111 26.188C321.049 26.1274 321.015 26.0439 321.017 25.9574C321.019 25.8709 321.056 25.789 321.121 25.731C322.396 24.6521 324.264 24.6521 325.54 25.731C325.604 25.7891 325.642 25.871 325.643 25.9575Z" fill="black"/>
<path fill-rule="evenodd" clip-rule="evenodd" d="M309.667 17.6667H308.667C308.114 17.6667 307.667 18.1144 307.667 18.6667V27.3334C307.667 27.8856 308.114 28.3334 308.667 28.3334H309.667C310.219 28.3334 310.667 27.8856 310.667 27.3334V18.6667C310.667 18.1144 310.219 17.6667 309.667 17.6667ZM304 20H305C305.552 20 306 20.4477 306 21V27.3334C306 27.8856 305.552 28.3334 305 28.3334H304C303.448 28.3334 303 27.8856 303 27.3334V21C303 20.4477 303.448 20 304 20ZM300.333 22.3334H299.333C298.781 22.3334 298.333 22.7811 298.333 23.3334V27.3334C298.333 27.8856 298.781 28.3334 299.333 28.3334H300.333C300.886 28.3334 301.333 27.8856 301.333 27.3334V23.3334C301.333 22.7811 300.886 22.3334 300.333 22.3334ZM295.667 24.3334H294.667C294.114 24.3334 293.667 24.7811 293.667 25.3334V27.3334C293.667 27.8856 294.114 28.3334 294.667 28.3334H295.667C296.219 28.3334 296.667 27.8856 296.667 27.3334V25.3334C296.667 24.7811 296.219 24.3334 295.667 24.3334Z" fill="black"/>
<path d="M37.3207 28.2563C40.0087 28.2563 41.6054 26.1543 41.6054 22.5947C41.6054 21.2544 41.349 20.1265 40.8583 19.2549C40.1479 17.8999 38.9247 17.1675 37.3793 17.1675C35.0795 17.1675 33.4535 18.7129 33.4535 20.8809C33.4535 22.917 34.9184 24.3965 36.9325 24.3965C38.1703 24.3965 39.1737 23.8179 39.6718 22.8145H39.6938C39.6938 22.8145 39.723 22.8145 39.7304 22.8145C39.745 22.8145 39.7963 22.8145 39.7963 22.8145C39.7963 25.2314 38.8808 26.6743 37.3354 26.6743C36.4271 26.6743 35.724 26.1763 35.4823 25.3779H33.6C33.9149 27.1138 35.3871 28.2563 37.3207 28.2563ZM37.3866 22.895C36.1708 22.895 35.3065 22.0308 35.3065 20.8223C35.3065 19.6431 36.2147 18.7422 37.3939 18.7422C38.5731 18.7422 39.4813 19.6577 39.4813 20.8516C39.4813 22.0308 38.5951 22.895 37.3866 22.895ZM44.6965 28.1538C45.3923 28.1538 45.8684 27.6558 45.8684 26.9966C45.8684 26.3301 45.3923 25.8394 44.6965 25.8394C44.008 25.8394 43.5246 26.3301 43.5246 26.9966C43.5246 27.6558 44.008 28.1538 44.6965 28.1538ZM44.6965 22.6606C45.3923 22.6606 45.8684 22.1699 45.8684 21.5107C45.8684 20.8442 45.3923 20.3535 44.6965 20.3535C44.008 20.3535 43.5246 20.8442 43.5246 21.5107C43.5246 22.1699 44.008 22.6606 44.6965 22.6606ZM52.7241 28H54.5332V26.0298H55.9614V24.4331H54.5332V17.4312H51.8672C49.9995 20.2437 48.5127 22.5947 47.5605 24.3452V26.0298H52.7241V28ZM49.311 24.3672C50.5415 22.1992 51.6401 20.4634 52.6509 18.9692H52.7534V24.4771H49.311V24.3672ZM59.99 28H61.8797V17.4312H59.9974L57.2361 19.3647V21.1812L59.8655 19.3354H59.99V28Z" fill="black"/>
</svg>
