<svg width="27" height="27" viewBox="0 0 27 27" fill="none" xmlns="http://www.w3.org/2000/svg">
<path fill-rule="evenodd" clip-rule="evenodd" d="M9.268 4.6559L9.645 5.0579C9.737 5.1539 9.884 5.1559 9.9735 5.0629L13 1.99887V17.0044H14.0005V1.86897L17.2535 5.1224C17.342 5.2139 17.4875 5.2119 17.579 5.1169L17.9925 4.7214C18.084 4.6269 18.086 4.4754 17.997 4.3834L14.2302 0.616626C14.2232 0.565308 14.2004 0.515439 14.162 0.475399L13.785 0.0733993C13.6925 -0.0226007 13.5455 -0.0246007 13.4565 0.0683993L9.2625 4.3144C9.173 4.4074 9.176 4.5604 9.268 4.6559ZM5 25.5044V8.5044H11V7.5044H4V26.5044H23V7.5044H16V8.5044H22V25.5044H5Z" fill="white"/>
</svg>
